<svg xmlns="http://www.w3.org/2000/svg" viewBox="0 0 256 256" role="img" aria-label="NS icon">
  <defs>
    <linearGradient id="bg" x1="24" y1="20" x2="232" y2="236" gradientUnits="userSpaceOnUse">
      <stop offset="0" stop-color="#7C3AED"/>
      <stop offset="0.55" stop-color="#2563EB"/>
      <stop offset="1" stop-color="#0F172A"/>
    </linearGradient>
    <linearGradient id="page" x1="70" y1="62" x2="184" y2="202" gradientUnits="userSpaceOnUse">
      <stop offset="0" stop-color="#FFFFFF"/>
      <stop offset="1" stop-color="#EDE9FE"/>
    </linearGradient>
  </defs>
  <rect width="256" height="256" rx="48" fill="url(#bg)"/>
  <path d="M64 70c0-13 10-23 23-23h36c14 0 28 5 38 15 10-10 24-15 38-15h10c10 0 19 9 19 19v118c0 11-8 20-19 20h-30c-16 0-31 5-43 15-12-10-27-15-43-15H87c-13 0-23-10-23-23V70z" fill="#111827" opacity=".22"/>
  <path d="M52 63c0-10 8-18 18-18h39c13 0 26 5 35 15v136c-10-8-22-12-35-12H70c-10 0-18-8-18-18V63z" fill="url(#page)"/>
  <path d="M144 60c9-10 22-15 35-15h39c10 0 18 8 18 18v103c0 10-8 18-18 18h-39c-13 0-25 4-35 12V60z" fill="#F8FAFC"/>
  <path d="M86 82h36M86 107h36M86 132h26M170 82h34M170 107h34M170 132h24" stroke="#7C3AED" stroke-width="8" stroke-linecap="round"/>
  <path d="M128 37l8 18 18 8-18 8-8 18-8-18-18-8 18-8 8-18zM204 151l5 11 11 5-11 5-5 11-5-11-11-5 11-5 5-11z" fill="#FACC15"/>
</svg>
